<svg  height="10" viewBox="0 0 512 512" width="10" x="{{X}}" y="{{Y}}">
   <rect width="100%" height="100%" fill="darkred" /> 
   <path d="m16 151.424v153.043a12 12 0 0 0 12 12 12 12 0 0 0 12-12v-40a12 12 0 0 1 12-12 12 12 0 0 0 12-12v-56.467z" fill="#9b052c"/>
   <path d="m512 435.533s-143-9.006-224-39.066-160-184-160-184c-63 16.5-80.38-19.8-80.38-19.8 31.5 9 90-22.5 90-22.5l-27-37.5c-27-37.5-101.995-22.5-101.995-22.5 27-55.5 89.627-27.38 124.494-16.5 27.954 8.724 48 0 48 0 97.5-37.5 144.388 35.792 178.887 62.791 23.718 18.562 63.98.257 86.827-13a82.125 82.125 0 0 1 41.217-11h23.95z" fill="#5b223c"/>
   <circle cx="48" cy="151.424" fill="#e0e0e0" r="32"/>
   <circle cx="47.949" cy="151.424" fill="#351e27" r="8.051"/>
   <circle cx="204" cy="128.467" fill="#dd033c" r="12"/>
   <path d="m512 332.467h-80c-.167 0-.333 0-.5-.016-21.914-1.369-39.33-9.861-51.765-25.239-28.362-35.074-20.018-93.46-19.648-95.929l15.824 2.367-7.911-1.183 7.913 1.177c-.079.536-7.65 53.984 16.294 83.544 9.587 11.836 22.689 18.144 40.048 19.279h79.745z" fill="#231118"/>
   <path d="m464.65 303.338c-23.195 0-40.543-5.509-51.777-16.484-15.5-15.144-12.91-34.693-12.792-35.519l15.839 2.264-7.92-1.132 7.929 1.064a27.7 27.7 0 0 0 8.3 22.052c12.041 11.559 36.4 14.667 70.451 8.992l2.631 15.783a200.184 200.184 0 0 1 -32.661 2.98z" fill="#231118"/>
   <path d="m48 191.424a40 40 0 1 1 40-40 40.046 40.046 0 0 1 -40 40zm0-64a24 24 0 1 0 24 24 24.027 24.027 0 0 0 -24-24z" fill="#dd033c"/>
   <path d="m320 364c-100-18-192-153-192-153l-.079 1.487.079-.02s79 153.94 160 184 224 39.065 224 39.065v-71.466c-89 25.066-192-.066-192-.066z" fill="#231118"/>
</svg>

